<?xml version="1.0" encoding="iso-8859-1"?>
<!-- Generator: Adobe Illustrator 19.0.0, SVG Export Plug-In . SVG Version: 6.00 Build 0)  -->
<svg version="1.1" id="Layer_1" xmlns="http://www.w3.org/2000/svg" xmlns:xlink="http://www.w3.org/1999/xlink" x="0px" y="0px"
	 viewBox="0 0 512 512" style="enable-background:new 0 0 512 512;" xml:space="preserve">
<circle style="fill:#83D8DD;" cx="256.001" cy="256.001" r="248.033"/>
<path style="fill:#7DBF63;" d="M206.116,368.798c-28.681-29.158-79.671-5.897-92.419-20.237
	c-12.747-14.34,3.187-28.682,25.495-29.226c22.308-0.545,7.967-44.071-14.599-62.645c-22.566-18.573-31.611,10.606-57.106-0.678
	c-14.146-6.261-19.348-55.603-15.807-79.947c3.154-21.681,21.247-46.928,38.244-42.454c16.997,4.473,6.056,19.71,19.317,20.591
	s9.012-18.252,28.134-22.851c17.896-4.304,56.879-11.46,24.645-104.941C71.64,63.447,7.968,152.281,7.968,256.001
	c0,22.038,2.89,43.398,8.283,63.74c21.399,16.29,51.41,12.068,58.095,33.644c2.694,8.696-13.625,20.141-27.836,35.447
	c36.477,57.408,95.895,98.809,165.358,111.283C232.909,449.215,225.516,388.521,206.116,368.798z"/>
<path style="opacity:0.1;enable-background:new    ;" d="M279.924,480.11c-136.984,0-248.033-111.048-248.033-248.033
	c0-62.403,23.053-119.419,61.098-163.012C40.891,114.534,7.968,181.42,7.968,256.001c0,136.984,111.049,248.033,248.033,248.033
	c74.581,0,141.466-32.923,186.935-85.022C399.343,457.057,342.328,480.11,279.924,480.11z"/>
<g>
	<path style="fill:#7DBF63;" d="M410.569,62.026c2.986,25.049,9.585,54.526-43.021,47.216c-26.334-3.66-58.63,4.383-58.428,32.761
		c0.13,18.327,5.312,67.979,23.371,69.041c18.06,1.062,59.491,8.383,63.74-23.961s37.104-47.172,46.704-34.446
		c7.401,9.811,36.239,43.49,57.34,60.161C489.608,152.061,456.839,98.944,410.569,62.026z"/>
	<path style="fill:#7DBF63;" d="M398.357,262.859c-20.167,10.178-60.553,31.43-43.556,73.732
		c16.997,42.301,35.057,77.362,23.371,112.415c-2.971,8.912,0.313,14.892,6.855,18.862
		c67.731-41.336,114.085-114.235,118.631-198.255C474.974,257.349,440.016,241.833,398.357,262.859z"/>
</g>
<path style="opacity:0.2;fill:#FFFFFF;enable-background:new    ;" d="M350.316,26.548c-7.877,11.772-12.477,25.923-12.477,41.15
	c0,40.921,33.173,74.093,74.094,74.093c20.208,0,38.516-8.099,51.883-21.216C436.536,78.799,397.004,45.76,350.316,26.548z"/>
<path d="M437.02,74.98C388.669,26.628,324.381,0,256.001,0S123.333,26.628,74.981,74.98c-48.351,48.352-74.98,112.64-74.98,181.02
	s26.628,132.667,74.98,181.019C123.333,485.372,187.62,512,256,512s132.668-26.628,181.019-74.98
	c48.352-48.352,74.98-112.639,74.98-181.019C512,187.62,485.372,123.332,437.02,74.98z M420.477,81.146
	c1.777,1.674,3.541,3.369,5.274,5.102c29.312,29.312,50.096,64.874,61.138,103.676c-16.073-15.992-32.241-34.987-37.595-42.085
	c-5.165-6.848-14.345-9.33-24.558-6.635c-15.224,4.015-33.111,19.759-36.407,44.842c-2.351,17.9-19.659,19.991-48.766,17.549
	c-2.368-0.199-4.606-0.387-6.606-0.505c-2.052-0.12-7.02-4.864-11.131-21.955c-3.631-15.091-4.688-31.734-4.741-39.188
	c-0.049-6.815,2.25-12.163,7.026-16.351c8.577-7.522,25.193-10.843,42.337-8.461c21.735,3.019,36.531,0.309,45.238-8.285
	C419.164,101.472,420.788,91.47,420.477,81.146z M47.959,375.966c-7.402-12.789-13.583-26.206-18.473-40.107
	c4.431,1.721,8.823,3.105,12.982,4.412c13.628,4.281,21.525,7.119,24.181,15.201c-0.596,3.028-8.595,10.734-13.921,15.864
	C51.208,372.798,49.597,374.359,47.959,375.966z M206.825,491.038c-45.366-9.395-87.056-31.767-120.576-65.287
	c-11.128-11.128-21.021-23.161-29.627-35.926c2.392-2.408,4.801-4.74,7.161-7.015c11.579-11.154,21.579-20.787,18.173-31.785
	c-5.165-16.676-20.185-21.395-34.712-25.959c-8.269-2.598-16.79-5.284-24.071-10.179c-4.776-19.021-7.238-38.766-7.238-58.887
	c0-64.123,24.971-124.41,70.314-169.752c20.841-20.84,44.843-37.363,70.918-49.15c10.59,33.361,12.142,57.215,4.588,70.958
	c-5.882,10.702-16.534,13.237-25.095,15.274l-1.146,0.274c-13.364,3.214-18.405,12.122-21.741,18.017
	c-2.669,4.717-2.899,4.703-4.002,4.63c-0.131-0.008-0.245-0.02-0.347-0.031c-0.174-0.583-0.365-1.415-0.517-2.079
	c-1.176-5.124-3.368-14.66-16.952-18.236c-7.164-1.886-14.764-0.357-21.983,4.418c-12.826,8.486-23.588,26.824-26.174,44.593
	c-1.924,13.216-1.416,32.52,1.291,49.178c3.568,21.959,10.02,35.148,19.176,39.201c15.192,6.725,26.4,1.834,34.585-1.736
	c8.323-3.631,12.5-5.453,20.681,1.28c16.252,13.376,25.287,38.228,22.347,46.747c-0.345,1.002-0.595,1.725-2.879,1.782
	c-17.156,0.419-31.33,7.801-36.113,18.808c-3.378,7.774-1.607,16.405,4.857,23.677c7.754,8.724,21.422,8.175,37.246,7.542
	c19.236-0.773,41.048-1.648,55.446,12.99c8.236,8.372,14.28,27.119,15.773,48.924C217.778,446.234,214.447,470.023,206.825,491.038z
	 M425.753,425.751c-12.294,12.294-25.696,23.077-39.965,32.284c-1.038-1.692-0.999-3.687-0.056-6.51
	c11.222-33.665-2.067-65.82-17.456-103.052c-1.994-4.825-4.056-9.815-6.082-14.853c-12.797-31.848,11.543-49.412,39.752-63.648
	c35.986-18.162,66.434-6.708,93.397,4.754C490.968,331.793,466.652,384.853,425.753,425.751z M394.767,255.746
	c-18.427,9.3-67.375,34.003-47.359,83.816c2.055,5.112,4.131,10.138,6.14,14.999c14.17,34.286,26.409,63.896,17.064,91.926
	c-2.441,7.323-1.843,14.113,1.539,19.716c-35.149,19.49-74.851,29.864-116.152,29.864c-11.216,0-22.31-0.781-33.231-2.284
	c7.687-22.402,10.989-47.439,9.337-71.561c-1.794-26.203-9.197-47.712-20.311-59.009c-19.344-19.666-47.141-18.553-67.445-17.738
	c-9.78,0.392-21.954,0.88-24.697-2.205c-3.412-3.839-2.496-5.948-2.151-6.74c1.851-4.259,10.151-8.941,21.885-9.227
	c8.485-0.207,14.883-4.769,17.555-12.515c6.322-18.331-9.476-49.587-27.285-64.246c-15.724-12.942-28.125-7.532-37.181-3.582
	c-7.248,3.163-12.977,5.66-21.763,1.77c-1.532-0.678-6.637-7.127-9.897-27.185c-2.43-14.953-2.932-32.768-1.25-44.329
	c1.918-13.182,10.17-27.626,19.196-33.597c3.374-2.233,6.445-3.005,9.135-2.299c4.267,1.123,4.523,2.239,5.477,6.393
	c1.016,4.425,3.131,13.633,15.339,14.442c11.334,0.764,15.899-7.332,18.925-12.682c2.775-4.904,4.966-8.777,11.597-10.372
	l1.11-0.265c9.758-2.321,26.087-6.207,35.371-23.1c9.952-18.106,8.724-45.87-3.77-84.721c26.531-9.898,54.892-15.079,84.053-15.079
	c53.939,0,105.158,17.673,147.056,50.273c0.035,0.277,0.068,0.549,0.102,0.828c1.531,12.179,3.115,24.771-2.663,30.473
	c-4.804,4.742-15.818,6.07-31.851,3.842c-26.127-3.629-45.561,3.955-55.037,12.264c-8.229,7.215-12.537,17.053-12.456,28.445
	c0.078,10.902,1.709,28.365,5.183,42.802c5.283,21.958,13.925,33.444,25.688,34.136c1.801,0.106,3.942,0.286,6.209,0.476
	c5.37,0.45,11.763,0.987,18.429,0.987c6.238-0.001,12.715-0.471,18.807-1.921c21.045-5.009,27.201-19.306,28.662-30.419
	c2.496-19.004,16.121-29.256,24.669-31.51c3.626-0.955,6.675-0.631,7.774,0.823c7.77,10.302,35.253,42.243,56.358,59.668
	c2.064,12.742,3.133,25.737,3.133,38.897c0,0.581-0.017,1.159-0.021,1.739C468.188,246.226,434.508,235.688,394.767,255.746z
	 M351.668,232.131c-4.401,0-7.967,3.567-7.967,7.967v8.797c0,4.4,3.566,7.967,7.967,7.967s7.967-3.567,7.967-7.967v-8.797
	C359.636,235.698,356.069,232.131,351.668,232.131z M297.428,271.875c-4.401,0-7.967,3.567-7.967,7.967
	c0,7.027-5.717,12.745-12.745,12.745c-7.026,0-12.744-5.717-12.744-12.745c0-4.4-3.566-7.967-7.967-7.967
	c-4.401,0-7.967,3.567-7.967,7.967c0,7.027-5.717,12.745-12.744,12.745c-7.027,0-12.745-5.717-12.745-12.745
	c0-4.4-3.566-7.967-7.967-7.967c-4.401,0-7.967,3.567-7.967,7.967c0,15.814,12.865,28.68,28.68,28.68
	c8.133,0,15.487-3.404,20.711-8.861c5.225,5.458,12.578,8.861,20.711,8.861c15.815,0,28.68-12.866,28.68-28.68
	C305.395,275.442,301.828,271.875,297.428,271.875z M160.339,232.131c-4.401,0-7.967,3.567-7.967,7.967v8.797
	c0,4.4,3.566,7.967,7.967,7.967s7.967-3.567,7.967-7.967v-8.797C168.307,235.698,164.74,232.131,160.339,232.131z"/>
<g>
</g>
<g>
</g>
<g>
</g>
<g>
</g>
<g>
</g>
<g>
</g>
<g>
</g>
<g>
</g>
<g>
</g>
<g>
</g>
<g>
</g>
<g>
</g>
<g>
</g>
<g>
</g>
<g>
</g>
</svg>
